<svg class="border shadow-md" viewBox="0 0 880 880" style="width: 880px; height: 880px;" xmlns="http://www.w3.org/2000/svg" preserveAspectRatio="none"><rect class="bg" id="bg" x="0" y="0" width="880" height="880" fill="#eeeeee"/><rect x="-20" y="3.6666666666666665" width="123" height="22" rx="11" fill="#47EDE0" opacity="0.13"/><rect x="113" y="3.6666666666666665" width="88" height="22" rx="11" fill="#CB00FA" opacity="0.13"/><rect x="211" y="3.6666666666666665" width="275" height="22" rx="11" fill="#05F5E9" opacity="0.13"/><rect x="496" y="3.6666666666666665" width="242" height="22" rx="11" fill="#5C5C5C" opacity="0.13"/><rect x="748" y="3.6666666666666665" width="271" height="22" rx="11" fill="#00EE86" opacity="0.13"/><rect x="-20" y="33" width="221" height="22" rx="11" fill="#CB00FA" opacity="0.13"/><rect x="211" y="33" width="255" height="22" rx="11" fill="#05F5E9" opacity="0.13"/><rect x="476" y="33" width="147" height="22" rx="11" fill="#CB00FA" opacity="0.13"/><rect x="633" y="33" width="88" height="22" rx="11" fill="#05F5E9" opacity="0.13"/><rect x="731" y="33" width="231" height="22" rx="11" fill="#5C5C5C" opacity="0.13"/><rect x="-20" y="62.33333333333333" width="103" height="22" rx="11" fill="#47EDE0" opacity="0.13"/><rect x="93" y="62.33333333333333" width="88" height="22" rx="11" fill="#CB00FA" opacity="0.13"/><rect x="191" y="62.33333333333333" width="117" height="22" rx="11" fill="#CB00FA" opacity="0.13"/><rect x="318" y="62.33333333333333" width="250" height="22" rx="11" fill="#05F5E9" opacity="0.13"/><rect x="578" y="62.33333333333333" width="88" height="22" rx="11" fill="#47EDE0" opacity="0.13"/><rect x="676" y="62.33333333333333" width="88" height="22" rx="11" fill="#00EE86" opacity="0.13"/><rect x="774" y="62.33333333333333" width="221" height="22" rx="11" fill="#CB00FA" opacity="0.13"/><rect x="-20" y="91.66666666666667" width="171" height="22" rx="11" fill="#5C5C5C" opacity="0.13"/><rect x="161" y="91.66666666666667" width="281" height="22" rx="11" fill="#05F5E9" opacity="0.13"/><rect x="452" y="91.66666666666667" width="88" height="22" rx="11" fill="#47EDE0" opacity="0.13"/><rect x="550" y="91.66666666666667" width="106" height="22" rx="11" fill="#05F5E9" opacity="0.13"/><rect x="666" y="91.66666666666667" width="88" height="22" rx="11" fill="#CB00FA" opacity="0.13"/><rect x="764" y="91.66666666666667" width="88" height="22" rx="11" fill="#05F5E9" opacity="0.13"/><rect x="862" y="91.66666666666667" width="88" height="22" rx="11" fill="#5C5C5C" opacity="0.13"/><rect x="-20" y="121" width="202" height="22" rx="11" fill="#47EDE0" opacity="0.13"/><rect x="192" y="121" width="259" height="22" rx="11" fill="#05F5E9" opacity="0.13"/><rect x="461" y="121" width="88" height="22" rx="11" fill="#5C5C5C" opacity="0.13"/><rect x="559" y="121" width="140" height="22" rx="11" fill="#47EDE0" opacity="0.13"/><rect x="709" y="121" width="88" height="22" rx="11" fill="#CB00FA" opacity="0.13"/><rect x="807" y="121" width="88" height="22" rx="11" fill="#CB00FA" opacity="0.13"/><rect x="-20" y="150.33333333333331" width="88" height="22" rx="11" fill="#5C5C5C" opacity="0.13"/><rect x="78" y="150.33333333333331" width="88" height="22" rx="11" fill="#CB00FA" opacity="0.13"/><rect x="176" y="150.33333333333331" width="278" height="22" rx="11" fill="#47EDE0" opacity="0.13"/><rect x="464" y="150.33333333333331" width="88" height="22" rx="11" fill="#CB00FA" opacity="0.13"/><rect x="562" y="150.33333333333331" width="274" height="22" rx="11" fill="#05F5E9" opacity="0.13"/><rect x="846" y="150.33333333333331" width="244" height="22" rx="11" fill="#05F5E9" opacity="0.13"/><rect x="-20" y="179.66666666666666" width="121" height="22" rx="11" fill="#00EE86" opacity="0.13"/><rect x="111" y="179.66666666666666" width="88" height="22" rx="11" fill="#05F5E9" opacity="0.13"/><rect x="209" y="179.66666666666666" width="88" height="22" rx="11" fill="#47EDE0" opacity="0.13"/><rect x="307" y="179.66666666666666" width="88" height="22" rx="11" fill="#47EDE0" opacity="0.13"/><rect x="405" y="179.66666666666666" width="122" height="22" rx="11" fill="#00EE86" opacity="0.13"/><rect x="537" y="179.66666666666666" width="88" height="22" rx="11" fill="#5C5C5C" opacity="0.13"/><rect x="635" y="179.66666666666666" width="207" height="22" rx="11" fill="#CB00FA" opacity="0.13"/><rect x="852" y="179.66666666666666" width="101" height="22" rx="11" fill="#CB00FA" opacity="0.13"/><rect x="-20" y="208.99999999999997" width="88" height="22" rx="11" fill="#5C5C5C" opacity="0.13"/><rect x="78" y="208.99999999999997" width="88" height="22" rx="11" fill="#CB00FA" opacity="0.13"/><rect x="176" y="208.99999999999997" width="88" height="22" rx="11" fill="#47EDE0" opacity="0.13"/><rect x="274" y="208.99999999999997" width="88" height="22" rx="11" fill="#47EDE0" opacity="0.13"/><rect x="372" y="208.99999999999997" width="128" height="22" rx="11" fill="#CB00FA" opacity="0.13"/><rect x="510" y="208.99999999999997" width="240" height="22" rx="11" fill="#5C5C5C" opacity="0.13"/><rect x="760" y="208.99999999999997" width="202" height="22" rx="11" fill="#00EE86" opacity="0.13"/><rect x="-20" y="238.33333333333331" width="250" height="22" rx="11" fill="#00EE86" opacity="0.13"/><rect x="240" y="238.33333333333331" width="205" height="22" rx="11" fill="#5C5C5C" opacity="0.13"/><rect x="455" y="238.33333333333331" width="88" height="22" rx="11" fill="#47EDE0" opacity="0.13"/><rect x="553" y="238.33333333333331" width="88" height="22" rx="11" fill="#47EDE0" opacity="0.13"/><rect x="651" y="238.33333333333331" width="231" height="22" rx="11" fill="#00EE86" opacity="0.13"/><rect x="-20" y="267.6666666666667" width="268" height="22" rx="11" fill="#00EE86" opacity="0.13"/><rect x="258" y="267.6666666666667" width="273" height="22" rx="11" fill="#47EDE0" opacity="0.13"/><rect x="541" y="267.6666666666667" width="104" height="22" rx="11" fill="#00EE86" opacity="0.13"/><rect x="655" y="267.6666666666667" width="179" height="22" rx="11" fill="#5C5C5C" opacity="0.13"/><rect x="844" y="267.6666666666667" width="199" height="22" rx="11" fill="#47EDE0" opacity="0.13"/><rect x="-20" y="297" width="88" height="22" rx="11" fill="#05F5E9" opacity="0.13"/><rect x="78" y="297" width="197" height="22" rx="11" fill="#47EDE0" opacity="0.13"/><rect x="285" y="297" width="292" height="22" rx="11" fill="#5C5C5C" opacity="0.13"/><rect x="587" y="297" width="196" height="22" rx="11" fill="#05F5E9" opacity="0.13"/><rect x="793" y="297" width="88" height="22" rx="11" fill="#5C5C5C" opacity="0.13"/><rect x="-20" y="326.3333333333333" width="232" height="22" rx="11" fill="#47EDE0" opacity="0.13"/><rect x="222" y="326.3333333333333" width="88" height="22" rx="11" fill="#CB00FA" opacity="0.13"/><rect x="320" y="326.3333333333333" width="165" height="22" rx="11" fill="#CB00FA" opacity="0.13"/><rect x="495" y="326.3333333333333" width="88" height="22" rx="11" fill="#00EE86" opacity="0.13"/><rect x="593" y="326.3333333333333" width="88" height="22" rx="11" fill="#5C5C5C" opacity="0.13"/><rect x="691" y="326.3333333333333" width="88" height="22" rx="11" fill="#47EDE0" opacity="0.13"/><rect x="789" y="326.3333333333333" width="277" height="22" rx="11" fill="#CB00FA" opacity="0.13"/><rect x="-20" y="355.6666666666667" width="104" height="22" rx="11" fill="#CB00FA" opacity="0.13"/><rect x="94" y="355.6666666666667" width="88" height="22" rx="11" fill="#CB00FA" opacity="0.13"/><rect x="192" y="355.6666666666667" width="88" height="22" rx="11" fill="#5C5C5C" opacity="0.13"/><rect x="290" y="355.6666666666667" width="119" height="22" rx="11" fill="#CB00FA" opacity="0.13"/><rect x="419" y="355.6666666666667" width="103" height="22" rx="11" fill="#47EDE0" opacity="0.13"/><rect x="532" y="355.6666666666667" width="164" height="22" rx="11" fill="#00EE86" opacity="0.13"/><rect x="706" y="355.6666666666667" width="108" height="22" rx="11" fill="#00EE86" opacity="0.13"/><rect x="824" y="355.6666666666667" width="88" height="22" rx="11" fill="#00EE86" opacity="0.13"/><rect x="-20" y="385" width="88" height="22" rx="11" fill="#00EE86" opacity="0.13"/><rect x="78" y="385" width="252" height="22" rx="11" fill="#00EE86" opacity="0.13"/><rect x="340" y="385" width="218" height="22" rx="11" fill="#47EDE0" opacity="0.13"/><rect x="568" y="385" width="162" height="22" rx="11" fill="#47EDE0" opacity="0.13"/><rect x="740" y="385" width="223" height="22" rx="11" fill="#5C5C5C" opacity="0.13"/><rect x="-20" y="414.3333333333333" width="88" height="22" rx="11" fill="#05F5E9" opacity="0.13"/><rect x="78" y="414.3333333333333" width="176" height="22" rx="11" fill="#47EDE0" opacity="0.13"/><rect x="264" y="414.3333333333333" width="170" height="22" rx="11" fill="#00EE86" opacity="0.13"/><rect x="444" y="414.3333333333333" width="207" height="22" rx="11" fill="#05F5E9" opacity="0.13"/><rect x="661" y="414.3333333333333" width="250" height="22" rx="11" fill="#00EE86" opacity="0.13"/><rect x="-20" y="443.6666666666667" width="267" height="22" rx="11" fill="#CB00FA" opacity="0.13"/><rect x="257" y="443.6666666666667" width="210" height="22" rx="11" fill="#47EDE0" opacity="0.13"/><rect x="477" y="443.6666666666667" width="88" height="22" rx="11" fill="#00EE86" opacity="0.13"/><rect x="575" y="443.6666666666667" width="88" height="22" rx="11" fill="#CB00FA" opacity="0.13"/><rect x="673" y="443.6666666666667" width="88" height="22" rx="11" fill="#5C5C5C" opacity="0.13"/><rect x="771" y="443.6666666666667" width="88" height="22" rx="11" fill="#05F5E9" opacity="0.13"/><rect x="869" y="443.6666666666667" width="175" height="22" rx="11" fill="#CB00FA" opacity="0.13"/><rect x="-20" y="473" width="139" height="22" rx="11" fill="#5C5C5C" opacity="0.13"/><rect x="129" y="473" width="243" height="22" rx="11" fill="#05F5E9" opacity="0.13"/><rect x="382" y="473" width="223" height="22" rx="11" fill="#05F5E9" opacity="0.13"/><rect x="615" y="473" width="88" height="22" rx="11" fill="#CB00FA" opacity="0.13"/><rect x="713" y="473" width="88" height="22" rx="11" fill="#5C5C5C" opacity="0.13"/><rect x="811" y="473" width="106" height="22" rx="11" fill="#5C5C5C" opacity="0.13"/><rect x="-20" y="502.3333333333333" width="88" height="22" rx="11" fill="#CB00FA" opacity="0.13"/><rect x="78" y="502.3333333333333" width="185" height="22" rx="11" fill="#47EDE0" opacity="0.13"/><rect x="273" y="502.3333333333333" width="88" height="22" rx="11" fill="#5C5C5C" opacity="0.13"/><rect x="371" y="502.3333333333333" width="216" height="22" rx="11" fill="#5C5C5C" opacity="0.13"/><rect x="597" y="502.3333333333333" width="170" height="22" rx="11" fill="#47EDE0" opacity="0.13"/><rect x="777" y="502.3333333333333" width="88" height="22" rx="11" fill="#47EDE0" opacity="0.13"/><rect x="875" y="502.3333333333333" width="88" height="22" rx="11" fill="#5C5C5C" opacity="0.13"/><rect x="-20" y="531.6666666666666" width="88" height="22" rx="11" fill="#05F5E9" opacity="0.13"/><rect x="78" y="531.6666666666666" width="88" height="22" rx="11" fill="#5C5C5C" opacity="0.13"/><rect x="176" y="531.6666666666666" width="88" height="22" rx="11" fill="#05F5E9" opacity="0.13"/><rect x="274" y="531.6666666666666" width="209" height="22" rx="11" fill="#CB00FA" opacity="0.13"/><rect x="493" y="531.6666666666666" width="147" height="22" rx="11" fill="#47EDE0" opacity="0.13"/><rect x="650" y="531.6666666666666" width="95" height="22" rx="11" fill="#00EE86" opacity="0.13"/><rect x="755" y="531.6666666666666" width="252" height="22" rx="11" fill="#CB00FA" opacity="0.13"/><rect x="-20" y="560.9999999999999" width="88" height="22" rx="11" fill="#00EE86" opacity="0.13"/><rect x="78" y="560.9999999999999" width="221" height="22" rx="11" fill="#5C5C5C" opacity="0.13"/><rect x="309" y="560.9999999999999" width="245" height="22" rx="11" fill="#00EE86" opacity="0.13"/><rect x="564" y="560.9999999999999" width="110" height="22" rx="11" fill="#00EE86" opacity="0.13"/><rect x="684" y="560.9999999999999" width="177" height="22" rx="11" fill="#05F5E9" opacity="0.13"/><rect x="871" y="560.9999999999999" width="201" height="22" rx="11" fill="#00EE86" opacity="0.13"/><rect x="-20" y="590.3333333333333" width="88" height="22" rx="11" fill="#CB00FA" opacity="0.13"/><rect x="78" y="590.3333333333333" width="88" height="22" rx="11" fill="#CB00FA" opacity="0.13"/><rect x="176" y="590.3333333333333" width="192" height="22" rx="11" fill="#05F5E9" opacity="0.13"/><rect x="378" y="590.3333333333333" width="88" height="22" rx="11" fill="#47EDE0" opacity="0.13"/><rect x="476" y="590.3333333333333" width="176" height="22" rx="11" fill="#05F5E9" opacity="0.13"/><rect x="662" y="590.3333333333333" width="88" height="22" rx="11" fill="#CB00FA" opacity="0.13"/><rect x="760" y="590.3333333333333" width="88" height="22" rx="11" fill="#05F5E9" opacity="0.13"/><rect x="858" y="590.3333333333333" width="91" height="22" rx="11" fill="#00EE86" opacity="0.13"/><rect x="-20" y="619.6666666666666" width="88" height="22" rx="11" fill="#5C5C5C" opacity="0.13"/><rect x="78" y="619.6666666666666" width="200" height="22" rx="11" fill="#47EDE0" opacity="0.13"/><rect x="288" y="619.6666666666666" width="104" height="22" rx="11" fill="#05F5E9" opacity="0.13"/><rect x="402" y="619.6666666666666" width="88" height="22" rx="11" fill="#00EE86" opacity="0.13"/><rect x="500" y="619.6666666666666" width="106" height="22" rx="11" fill="#CB00FA" opacity="0.13"/><rect x="616" y="619.6666666666666" width="106" height="22" rx="11" fill="#05F5E9" opacity="0.13"/><rect x="732" y="619.6666666666666" width="99" height="22" rx="11" fill="#CB00FA" opacity="0.13"/><rect x="841" y="619.6666666666666" width="287" height="22" rx="11" fill="#05F5E9" opacity="0.13"/><rect x="-20" y="648.9999999999999" width="88" height="22" rx="11" fill="#5C5C5C" opacity="0.13"/><rect x="78" y="648.9999999999999" width="88" height="22" rx="11" fill="#5C5C5C" opacity="0.13"/><rect x="176" y="648.9999999999999" width="92" height="22" rx="11" fill="#00EE86" opacity="0.13"/><rect x="278" y="648.9999999999999" width="284" height="22" rx="11" fill="#CB00FA" opacity="0.13"/><rect x="572" y="648.9999999999999" width="277" height="22" rx="11" fill="#CB00FA" opacity="0.13"/><rect x="859" y="648.9999999999999" width="88" height="22" rx="11" fill="#CB00FA" opacity="0.13"/><rect x="-20" y="678.3333333333333" width="88" height="22" rx="11" fill="#5C5C5C" opacity="0.13"/><rect x="78" y="678.3333333333333" width="88" height="22" rx="11" fill="#00EE86" opacity="0.13"/><rect x="176" y="678.3333333333333" width="88" height="22" rx="11" fill="#05F5E9" opacity="0.13"/><rect x="274" y="678.3333333333333" width="92" height="22" rx="11" fill="#05F5E9" opacity="0.13"/><rect x="376" y="678.3333333333333" width="88" height="22" rx="11" fill="#00EE86" opacity="0.13"/><rect x="474" y="678.3333333333333" width="126" height="22" rx="11" fill="#CB00FA" opacity="0.13"/><rect x="610" y="678.3333333333333" width="88" height="22" rx="11" fill="#05F5E9" opacity="0.13"/><rect x="708" y="678.3333333333333" width="231" height="22" rx="11" fill="#5C5C5C" opacity="0.13"/><rect x="-20" y="707.6666666666666" width="96" height="22" rx="11" fill="#05F5E9" opacity="0.13"/><rect x="86" y="707.6666666666666" width="283" height="22" rx="11" fill="#00EE86" opacity="0.13"/><rect x="379" y="707.6666666666666" width="88" height="22" rx="11" fill="#00EE86" opacity="0.13"/><rect x="477" y="707.6666666666666" width="110" height="22" rx="11" fill="#00EE86" opacity="0.13"/><rect x="597" y="707.6666666666666" width="159" height="22" rx="11" fill="#00EE86" opacity="0.13"/><rect x="766" y="707.6666666666666" width="88" height="22" rx="11" fill="#CB00FA" opacity="0.13"/><rect x="864" y="707.6666666666666" width="109" height="22" rx="11" fill="#5C5C5C" opacity="0.13"/><rect x="-20" y="736.9999999999999" width="222" height="22" rx="11" fill="#05F5E9" opacity="0.13"/><rect x="212" y="736.9999999999999" width="88" height="22" rx="11" fill="#CB00FA" opacity="0.13"/><rect x="310" y="736.9999999999999" width="130" height="22" rx="11" fill="#CB00FA" opacity="0.13"/><rect x="450" y="736.9999999999999" width="148" height="22" rx="11" fill="#5C5C5C" opacity="0.13"/><rect x="608" y="736.9999999999999" width="88" height="22" rx="11" fill="#00EE86" opacity="0.13"/><rect x="706" y="736.9999999999999" width="88" height="22" rx="11" fill="#5C5C5C" opacity="0.13"/><rect x="804" y="736.9999999999999" width="149" height="22" rx="11" fill="#CB00FA" opacity="0.13"/><rect x="-20" y="766.3333333333333" width="235" height="22" rx="11" fill="#47EDE0" opacity="0.13"/><rect x="225" y="766.3333333333333" width="110" height="22" rx="11" fill="#00EE86" opacity="0.13"/><rect x="345" y="766.3333333333333" width="179" height="22" rx="11" fill="#05F5E9" opacity="0.13"/><rect x="534" y="766.3333333333333" width="216" height="22" rx="11" fill="#05F5E9" opacity="0.13"/><rect x="760" y="766.3333333333333" width="131" height="22" rx="11" fill="#00EE86" opacity="0.13"/><rect x="-20" y="795.6666666666666" width="158" height="22" rx="11" fill="#47EDE0" opacity="0.13"/><rect x="148" y="795.6666666666666" width="254" height="22" rx="11" fill="#47EDE0" opacity="0.13"/><rect x="412" y="795.6666666666666" width="89" height="22" rx="11" fill="#00EE86" opacity="0.13"/><rect x="511" y="795.6666666666666" width="186" height="22" rx="11" fill="#00EE86" opacity="0.13"/><rect x="707" y="795.6666666666666" width="88" height="22" rx="11" fill="#47EDE0" opacity="0.13"/><rect x="805" y="795.6666666666666" width="108" height="22" rx="11" fill="#47EDE0" opacity="0.13"/><rect x="-20" y="824.9999999999999" width="147" height="22" rx="11" fill="#05F5E9" opacity="0.13"/><rect x="137" y="824.9999999999999" width="88" height="22" rx="11" fill="#CB00FA" opacity="0.13"/><rect x="235" y="824.9999999999999" width="254" height="22" rx="11" fill="#00EE86" opacity="0.13"/><rect x="499" y="824.9999999999999" width="88" height="22" rx="11" fill="#05F5E9" opacity="0.13"/><rect x="597" y="824.9999999999999" width="182" height="22" rx="11" fill="#00EE86" opacity="0.13"/><rect x="789" y="824.9999999999999" width="104" height="22" rx="11" fill="#47EDE0" opacity="0.13"/><rect x="-20" y="854.3333333333333" width="136" height="22" rx="11" fill="#CB00FA" opacity="0.13"/><rect x="126" y="854.3333333333333" width="210" height="22" rx="11" fill="#CB00FA" opacity="0.13"/><rect x="346" y="854.3333333333333" width="88" height="22" rx="11" fill="#00EE86" opacity="0.13"/><rect x="444" y="854.3333333333333" width="103" height="22" rx="11" fill="#47EDE0" opacity="0.13"/><rect x="557" y="854.3333333333333" width="102" height="22" rx="11" fill="#47EDE0" opacity="0.13"/><rect x="669" y="854.3333333333333" width="88" height="22" rx="11" fill="#47EDE0" opacity="0.13"/><rect x="767" y="854.3333333333333" width="88" height="22" rx="11" fill="#47EDE0" opacity="0.13"/><rect x="865" y="854.3333333333333" width="180" height="22" rx="11" fill="#47EDE0" opacity="0.13"/></svg>